<svg width="64" height="67" viewBox="0 0 64 67" fill="none" xmlns="http://www.w3.org/2000/svg">
<path d="M20.3125 18.456C25.0069 18.456 28.8125 14.3879 28.8125 9.36962C28.8125 4.35133 25.0069 0.283203 20.3125 0.283203C15.6181 0.283203 11.8125 4.35133 11.8125 9.36962C11.8125 14.3879 15.6181 18.456 20.3125 18.456Z" fill="#00A9B8"/>
<path d="M42.625 18.456C47.3194 18.456 51.125 14.3879 51.125 9.36962C51.125 4.35133 47.3194 0.283203 42.625 0.283203C37.9306 0.283203 34.125 4.35133 34.125 9.36962C34.125 14.3879 37.9306 18.456 42.625 18.456Z" fill="#092C4C"/>
<path d="M63.875 43.4446C63.875 30.8988 54.361 20.7285 42.625 20.7285C30.8889 20.7285 21.375 30.8988 21.375 43.4446C21.375 55.9903 30.8889 66.1606 42.625 66.1606C54.361 66.1606 63.875 55.9903 63.875 43.4446Z" fill="#092C4C"/>
<path fill-rule="evenodd" clip-rule="evenodd" d="M32 23.7675C38.3516 27.6952 42.625 35.0364 42.625 43.4446C42.625 51.8527 38.3516 59.1942 32 63.1218C25.6484 59.1942 21.375 51.8527 21.375 43.4446C21.375 35.0364 25.6484 27.6952 32 23.7675ZM32 23.7675C28.8744 21.8347 25.2455 20.7285 21.375 20.7285C9.63894 20.7285 0.125 30.8988 0.125 43.4446V66.1606H21.375C25.2455 66.1606 28.8744 65.0543 32 63.1218C35.1256 65.0543 38.7545 66.1606 42.625 66.1606C54.3608 66.1606 63.875 55.9903 63.875 43.4446V20.7285H42.625C38.7545 20.7285 35.1256 21.8347 32 23.7675Z" fill="#00A9B8"/>
</svg>
