<svg width="1440" height="433" viewBox="0 0 1440 433" fill="none" xmlns="http://www.w3.org/2000/svg">
<path fill-rule="evenodd" clip-rule="evenodd" d="M0 134.278H60C120 134.278 240 134.278 360 114.139C480 94 600 53.7222 720 53.7222C840 53.7222 960 94 1080 98.8611C1200 103.722 1320 73.8611 1380 59.2778L1440 44V194H1380C1320 194 1200 194 1080 194C960 194 840 194 720 194C600 194 480 194 360 194C240 194 120 194 60 194H0V134.278Z" fill="#F5F5F5"/>
<rect y="136" width="1440" height="225" fill="#F5F5F5"/>
</svg>
