<svg width="267" height="250" viewBox="0 0 267 250" fill="none" xmlns="http://www.w3.org/2000/svg">
<path d="M39.0039 230.569C91.0123 256.087 175.329 256.093 227.338 230.569C279.346 205.045 279.34 163.667 227.338 138.143C175.336 112.619 91.0123 112.619 39.0039 138.143C-13.0045 163.667 -12.9981 205.045 39.0039 230.569Z" fill="#F5F5F5"/>
<path d="M223.043 216.196C234.712 216.196 244.171 211.688 244.171 206.128C244.171 200.568 234.712 196.061 223.043 196.061C211.375 196.061 201.916 200.568 201.916 206.128C201.916 211.688 211.375 216.196 223.043 216.196Z" fill="#E6E6E6"/>
<path d="M132.39 116.115L108.395 129.972C107.42 130.609 106.732 131.601 106.475 132.737L100.51 167.177C100.442 167.711 100.525 168.254 100.752 168.744C100.978 169.233 101.338 169.648 101.79 169.942L117.266 178.902C117.763 179.15 118.311 179.28 118.866 179.28C119.422 179.28 119.97 179.15 120.466 178.902L153.543 159.804C154.029 159.545 154.435 159.159 154.719 158.687C155.002 158.216 155.152 157.676 155.152 157.125C155.152 156.575 155.002 156.035 154.719 155.563C154.435 155.091 154.029 154.705 153.543 154.447L141.677 147.553C141.199 147.24 140.792 146.83 140.482 146.351C140.171 145.872 139.963 145.333 139.872 144.769L137.197 118.778C137.117 118.231 136.924 117.707 136.631 117.239C136.338 116.771 135.951 116.369 135.494 116.058C135.009 115.823 134.474 115.705 133.935 115.715C133.396 115.725 132.866 115.862 132.39 116.115Z" fill="#263238"/>
<path d="M118.873 172.822V179.26C119.435 179.272 119.99 179.139 120.486 178.876L153.562 159.778C154.023 159.491 154.409 159.099 154.69 158.634C154.97 158.169 155.136 157.644 155.175 157.103C155.14 156.47 154.917 155.862 154.535 155.355H149.121L118.873 172.822Z" fill="#455A64"/>
<path d="M135.411 117.856L111.41 131.719C110.435 132.356 109.746 133.348 109.49 134.484L104.069 165.743C104.001 166.278 104.086 166.822 104.312 167.312C104.538 167.802 104.898 168.218 105.349 168.514L117.247 175.382C117.744 175.63 118.292 175.759 118.847 175.759C119.403 175.759 119.951 175.63 120.447 175.382L153.562 156.258C154.458 155.746 154.458 154.914 153.562 154.395L141.677 147.553C141.2 147.24 140.793 146.83 140.482 146.351C140.171 145.872 139.964 145.333 139.872 144.769L137.197 118.778C137.201 118.569 137.146 118.363 137.039 118.183C136.932 118.003 136.777 117.857 136.591 117.761C136.405 117.666 136.196 117.624 135.987 117.64C135.779 117.657 135.579 117.732 135.411 117.856Z" fill="#263238"/>
<path d="M153.562 154.421L141.677 147.553C141.198 147.253 140.793 146.848 140.493 146.369L104.293 167.266C104.513 167.782 104.886 168.217 105.362 168.514L117.26 175.381C117.757 175.63 118.305 175.759 118.86 175.759C119.416 175.759 119.963 175.63 120.46 175.381L153.562 156.258C154.477 155.771 154.477 154.939 153.562 154.421Z" fill="#37474F"/>
<path d="M56.1119 184.611L54.5758 183.721C53.918 183.293 53.3706 182.716 52.978 182.036C52.5854 181.357 52.3588 180.594 52.3165 179.811V76.7666C52.3588 75.9839 52.5854 75.2222 52.9781 74.5437C53.3707 73.8652 53.9182 73.2891 54.5758 72.8625L180.507 0.539718C181.207 0.184897 181.981 0 182.766 0C183.551 0 184.325 0.184897 185.026 0.539718L186.197 1.17974C186.854 1.60814 187.401 2.18548 187.794 2.86492C188.187 3.54437 188.413 4.30677 188.456 5.09029V108.198C188.414 108.982 188.187 109.744 187.795 110.424C187.402 111.104 186.855 111.681 186.197 112.109L60.6304 184.611C59.9297 184.964 59.1559 185.148 58.3712 185.148C57.5864 185.148 56.8126 184.964 56.1119 184.611Z" fill="#455A64"/>
<path d="M61.3922 79.3656L52.9823 74.5078C52.583 75.1837 52.3627 75.9503 52.3423 76.7351V179.811C52.3845 180.595 52.6112 181.357 53.0038 182.037C53.3963 182.716 53.9438 183.294 54.6016 183.722L56.1376 184.611C56.8383 184.965 57.6122 185.149 58.3969 185.149C59.1817 185.149 59.9555 184.965 60.6562 184.611L61.4178 184.163L61.3922 79.3656Z" fill="#263238"/>
<path d="M58.3713 183.304V80.2596C58.4136 79.4759 58.6402 78.7133 59.0328 78.0338C59.4254 77.3543 59.9728 76.777 60.6306 76.349L186.197 3.81505C187.445 3.09822 188.456 3.68065 188.456 5.0951V108.197C188.414 108.98 188.187 109.743 187.795 110.422C187.402 111.102 186.855 111.679 186.197 112.107L60.6306 184.609C59.3826 185.326 58.3713 184.744 58.3713 183.304Z" fill="#37474F"/>
<path d="M117.356 144.883L129.254 138.009C130.144 137.497 130.867 137.862 130.867 138.828C130.828 139.37 130.661 139.894 130.381 140.359C130.1 140.824 129.714 141.216 129.254 141.504L117.356 148.377C116.46 148.889 115.743 148.525 115.743 147.558C115.782 147.017 115.948 146.492 116.229 146.027C116.509 145.562 116.895 145.17 117.356 144.883Z" fill="#E0E0E0"/>
<path d="M64.1574 79.4548L182.415 10.9722C183.125 10.5626 183.695 10.8954 183.695 11.7146V101.58C183.671 102.027 183.543 102.462 183.321 102.85C183.099 103.238 182.788 103.568 182.415 103.814L64.1574 172.092C63.4405 172.502 62.8773 172.169 62.8773 171.343V81.7397C62.8928 81.2843 63.0171 80.8393 63.2398 80.4418C63.4625 80.0443 63.7771 79.7058 64.1574 79.4548Z" fill="white"/>
<path d="M72.6823 81.7166L196.789 10.0339C198.761 8.90104 200.374 9.82907 200.374 12.1012V93.0963C200.341 93.673 200.173 94.2341 199.884 94.7343C199.595 95.2345 199.193 95.6599 198.709 95.9764L72.0422 169.112C71.127 169.643 70.3782 169.208 70.3782 168.152V85.7104C70.4232 84.9109 70.6551 84.1331 71.0552 83.4395C71.4554 82.7459 72.0127 82.1558 72.6823 81.7166Z" fill="#E0E0E0"/>
<path d="M200.374 13.9896V12.1207C200.374 9.84861 198.761 8.92057 196.789 10.0534L72.6823 81.7362C72.0127 82.1753 71.4554 82.7654 71.0552 83.459C70.6551 84.1526 70.4232 84.9304 70.3782 85.7299V89.058L200.374 13.9896Z" fill="#BA68C8"/>
<path d="M185.352 18.2525C184.994 18.4858 184.696 18.8005 184.483 19.1709C184.269 19.5413 184.146 19.9568 184.124 20.3838C184.124 21.171 184.674 21.491 185.352 21.1006C185.712 20.8666 186.011 20.551 186.226 20.1796C186.44 19.8081 186.564 19.3913 186.588 18.9629C186.588 18.1757 186.037 17.8557 185.352 18.2525Z" fill="white"/>
<path d="M190.248 15.4542C189.898 15.6878 189.606 15.9996 189.396 16.3649C189.186 16.7303 189.064 17.1393 189.039 17.5599C189.039 18.3471 189.589 18.6671 190.274 18.2703C190.633 18.0359 190.932 17.7203 191.147 17.3489C191.361 16.9775 191.485 16.5609 191.509 16.1326C191.484 15.3454 190.959 15.0318 190.248 15.4542Z" fill="white"/>
<path d="M195.145 12.5982C194.785 12.8308 194.486 13.1452 194.271 13.5156C194.056 13.886 193.932 14.302 193.909 14.7295C193.909 15.5167 194.46 15.8367 195.145 15.4463C195.503 15.2112 195.8 14.8953 196.014 14.5239C196.227 14.1526 196.35 13.7363 196.373 13.3086C196.373 12.5214 195.823 12.2014 195.145 12.5982Z" fill="white"/>
<path d="M192.533 28.2109C192.431 27.8717 192.111 27.7629 191.733 27.9805L112.806 73.5567C112.556 73.7143 112.353 73.9351 112.217 74.1967L109.618 72.6926C109.755 72.431 109.958 72.2102 110.207 72.0526L189.135 26.4829C189.392 26.3504 189.678 26.2813 189.967 26.2812C190.256 26.2812 190.542 26.3504 190.799 26.4829L191.733 27.0205C191.94 27.1548 192.117 27.3295 192.255 27.5341C192.392 27.7386 192.487 27.9689 192.533 28.2109Z" fill="#EBEBEB"/>
<path d="M192.565 28.4617V62.5686C192.55 62.8573 192.467 63.1383 192.322 63.3886C192.178 63.6389 191.976 63.8514 191.733 64.0087L112.805 109.578L112.69 109.636C112.641 109.657 112.589 109.672 112.537 109.681C112.223 109.726 111.999 109.502 111.999 109.092V74.9723C112.009 74.683 112.093 74.4011 112.242 74.153C112.378 73.8915 112.582 73.6706 112.831 73.513L191.759 27.9369C192.136 27.7193 192.456 27.8281 192.559 28.1673C192.562 28.1885 192.562 28.2101 192.559 28.2313C192.571 28.3075 192.573 28.3849 192.565 28.4617Z" fill="#FAFAFA"/>
<path d="M112.511 109.684C112.256 109.762 111.988 109.786 111.724 109.755C111.519 109.737 111.321 109.676 111.141 109.576L110.207 109.038C109.966 108.88 109.765 108.667 109.62 108.417C109.476 108.167 109.392 107.886 109.375 107.598V73.4911C109.384 73.2016 109.468 72.9194 109.618 72.6719L112.217 74.1759C112.068 74.424 111.984 74.7059 111.973 74.9952V109.096C111.973 109.531 112.198 109.729 112.511 109.684Z" fill="#E0E0E0"/>
<path d="M190.114 46.734C190.076 46.7142 190.035 46.7021 189.993 46.6985C189.95 46.6949 189.908 46.6997 189.867 46.7129C189.826 46.726 189.789 46.7471 189.757 46.7749C189.724 46.8027 189.698 46.8366 189.679 46.8748L186.888 52.3982C186.81 52.2875 186.71 52.1939 186.594 52.123C186.399 52.0266 186.181 51.984 185.964 51.9998C185.747 52.0155 185.538 52.089 185.359 52.2126C184.985 52.4547 184.665 52.7711 184.418 53.1421C184.171 53.5131 184.004 53.9309 183.925 54.3695L178.562 53.499C178.547 53.3283 178.493 53.1633 178.405 53.0167C178.316 52.8702 178.194 52.7461 178.05 52.6542C177.853 52.5579 177.635 52.5154 177.417 52.5312C177.199 52.5469 176.989 52.6203 176.808 52.7438C176.487 52.9399 176.208 53.199 175.989 53.5054L169.198 47.2972C169.385 46.9207 169.488 46.5079 169.499 46.0875C169.529 45.8691 169.494 45.6465 169.397 45.4484C169.3 45.2503 169.146 45.0857 168.955 44.9757C168.763 44.8657 168.544 44.8153 168.324 44.8309C168.104 44.8466 167.893 44.9275 167.72 45.0635C167.293 45.339 166.939 45.7119 166.685 46.1515C166.431 46.5911 166.286 47.0847 166.26 47.5916C166.243 47.8066 166.284 48.0223 166.377 48.2168C166.47 48.4112 166.613 48.5776 166.792 48.6988L161.96 63.2466C161.788 63.2091 161.611 63.2062 161.438 63.2381C161.266 63.27 161.101 63.336 160.955 63.4322C160.461 63.7422 160.066 64.1862 159.815 64.7123L154.004 60.5201C154.004 60.5201 154.004 60.4689 154.004 60.4369C154.034 60.2184 153.999 59.9959 153.902 59.7978C153.805 59.5997 153.651 59.4351 153.46 59.3251C153.268 59.215 153.049 59.1646 152.829 59.1803C152.609 59.1959 152.398 59.2769 152.225 59.4129C151.794 59.6914 151.437 60.0694 151.183 60.515C150.929 60.9605 150.786 61.4605 150.765 61.973C150.758 62.2601 150.836 62.5429 150.989 62.7858L146.285 76.5719C146.058 76.594 145.839 76.6685 145.645 76.7895C145.247 77.0464 144.91 77.3887 144.66 77.7916C144.41 78.1945 144.252 78.648 144.199 79.1192L136.915 83.2922C136.85 83.0273 136.685 82.798 136.455 82.6521C136.258 82.5554 136.039 82.5133 135.821 82.5302C135.602 82.5471 135.392 82.6224 135.213 82.7481C134.557 83.1676 134.077 83.8116 133.862 84.5594L129.158 82.6393C129.178 82.5144 129.189 82.3882 129.19 82.2617C129.222 82.0427 129.188 81.8192 129.091 81.62C128.995 81.4208 128.841 81.2551 128.649 81.1442C128.458 81.0333 128.238 80.9823 128.017 80.9978C127.796 81.0134 127.585 81.0947 127.411 81.2313C126.985 81.5068 126.63 81.8797 126.376 82.3193C126.123 82.7588 125.977 83.2525 125.952 83.7594C125.951 83.9471 125.984 84.1334 126.048 84.3098L120.678 94.5822C120.5 94.5303 120.313 94.5177 120.129 94.5453C119.946 94.573 119.77 94.6401 119.615 94.7422C119.216 94.9998 118.879 95.343 118.629 95.7471C118.379 96.1512 118.222 96.6059 118.169 97.0783L114.412 99.2928C114.339 99.3368 114.286 99.4076 114.264 99.4901C114.243 99.5727 114.255 99.6603 114.297 99.7344C114.325 99.7828 114.365 99.823 114.413 99.8511C114.461 99.8791 114.516 99.8941 114.572 99.8944C114.628 99.8925 114.683 99.8771 114.732 99.8496L118.233 97.8271C118.298 98.092 118.463 98.3213 118.694 98.4672C118.847 98.5512 119.019 98.5952 119.193 98.5952C119.455 98.5883 119.711 98.5133 119.936 98.3776C120.366 98.099 120.723 97.721 120.977 97.2755C121.231 96.8299 121.374 96.3299 121.395 95.8175C121.402 95.5442 121.328 95.2749 121.184 95.043L126.483 84.9178C126.632 85.0056 126.803 85.05 126.976 85.0458C127.238 85.0399 127.494 84.9648 127.718 84.8282C128.288 84.4636 128.726 83.925 128.966 83.2922L133.747 85.2122C133.747 85.2122 133.747 85.257 133.747 85.2826C133.729 85.5003 133.77 85.7188 133.864 85.9156C133.959 86.1125 134.104 86.2806 134.285 86.4027C134.438 86.4867 134.61 86.5307 134.784 86.5307C135.047 86.5222 135.303 86.445 135.527 86.3067C135.925 86.0498 136.262 85.7075 136.512 85.3046C136.762 84.9017 136.92 84.4482 136.973 83.977L144.237 79.7976C144.301 80.0631 144.467 80.2928 144.698 80.4377C144.849 80.5267 145.022 80.5731 145.197 80.5721C145.46 80.5627 145.716 80.4855 145.94 80.3481C146.366 80.0726 146.721 79.6997 146.974 79.2601C147.228 78.8205 147.374 78.3269 147.399 77.82C147.414 77.6128 147.376 77.4053 147.29 77.2163C147.204 77.0274 147.072 76.863 146.906 76.7383L151.534 63.189C151.621 63.2152 151.711 63.2281 151.802 63.2274C152.065 63.218 152.321 63.1409 152.545 63.0034C153.178 62.5952 153.648 61.9764 153.87 61.2561L159.579 65.3651C159.52 65.5734 159.49 65.7887 159.489 66.0051C159.471 66.2227 159.511 66.4412 159.606 66.6381C159.7 66.8349 159.846 67.0031 160.027 67.1252C160.18 67.2092 160.351 67.2532 160.526 67.2532C160.789 67.2447 161.045 67.1674 161.268 67.0291C161.699 66.7506 162.056 66.3726 162.31 65.9271C162.564 65.4815 162.707 64.9815 162.728 64.469C162.736 64.1809 162.656 63.897 162.497 63.6562L167.419 48.8333C167.645 48.8163 167.863 48.7485 168.059 48.6348C168.381 48.4374 168.662 48.1786 168.885 47.8732L175.688 54.0751C175.497 54.4506 175.393 54.8637 175.381 55.2847C175.361 55.5025 175.401 55.7214 175.496 55.9186C175.59 56.1157 175.736 56.2836 175.918 56.4047C176.07 56.4918 176.243 56.5361 176.418 56.5327C176.68 56.5268 176.936 56.4517 177.16 56.3151C177.535 56.0747 177.856 55.7587 178.101 55.3873C178.347 55.0159 178.513 54.5973 178.587 54.1583L183.957 55.0351C183.973 55.2047 184.027 55.3685 184.116 55.5138C184.204 55.6592 184.325 55.7822 184.469 55.8735C184.62 55.9631 184.793 56.0096 184.968 56.0079C185.231 55.9986 185.487 55.9214 185.711 55.7839C186.124 55.5166 186.47 55.1575 186.722 54.7346C186.974 54.3116 187.125 53.8363 187.164 53.3454L190.287 47.1756C190.307 47.1356 190.318 47.0919 190.32 47.0472C190.322 47.0026 190.315 46.9581 190.298 46.9165C190.282 46.8749 190.257 46.8371 190.226 46.8057C190.194 46.7743 190.156 46.7498 190.114 46.734ZM119.615 97.7759C119.531 97.8396 119.431 97.8811 119.326 97.8968C119.221 97.9124 119.114 97.9017 119.014 97.8655C118.933 97.7975 118.87 97.7104 118.831 97.6121C118.792 97.5138 118.778 97.4074 118.79 97.3023C118.812 96.9081 118.926 96.5245 119.121 96.1814C119.317 95.8383 119.589 95.5451 119.916 95.3246C120.042 95.2471 120.185 95.201 120.332 95.1902C120.395 95.1906 120.456 95.206 120.512 95.235C120.592 95.3031 120.655 95.3902 120.694 95.4884C120.734 95.5867 120.748 95.6932 120.736 95.7982C120.714 96.1919 120.601 96.5752 120.407 96.9182C120.213 97.2612 119.942 97.5548 119.615 97.7759ZM127.411 84.265C127.327 84.3276 127.228 84.3685 127.125 84.3841C127.021 84.3998 126.915 84.3896 126.816 84.3546C126.735 84.2866 126.672 84.1995 126.633 84.1012C126.594 84.0029 126.58 83.8965 126.592 83.7914C126.617 83.3972 126.733 83.0141 126.93 82.6721C127.128 82.3302 127.402 82.0385 127.731 81.8201C127.858 81.7396 128.003 81.6933 128.153 81.6857C128.215 81.6848 128.277 81.6979 128.333 81.7241C128.413 81.7935 128.476 81.8819 128.514 81.9813C128.552 82.0808 128.564 82.1882 128.55 82.2937C128.525 82.6879 128.409 83.071 128.212 83.413C128.014 83.755 127.74 84.0466 127.411 84.265ZM135.213 85.7691C135.128 85.8327 135.028 85.8743 134.923 85.8899C134.818 85.9056 134.711 85.8948 134.611 85.8587C134.531 85.7899 134.47 85.7026 134.432 85.6043C134.394 85.5061 134.381 85.4 134.394 85.2955C134.414 84.8957 134.527 84.5063 134.725 84.1584C134.923 83.8105 135.2 83.5138 135.533 83.2922C135.66 83.2117 135.805 83.1654 135.955 83.1578C136.018 83.1558 136.08 83.1713 136.135 83.2026C136.214 83.2713 136.276 83.3587 136.314 83.4569C136.352 83.5552 136.365 83.6613 136.352 83.7658C136.332 84.1655 136.219 84.555 136.021 84.9029C135.823 85.2508 135.546 85.5474 135.213 85.7691ZM145.613 79.7656C145.528 79.8293 145.429 79.8708 145.324 79.8865C145.219 79.9021 145.112 79.8914 145.012 79.8552C144.931 79.7872 144.868 79.7001 144.829 79.6018C144.79 79.5035 144.776 79.3971 144.788 79.292C144.812 78.8962 144.929 78.5114 145.128 78.1682C145.326 77.825 145.602 77.5327 145.933 77.3143C146.058 77.2341 146.201 77.1878 146.349 77.1799C146.412 77.1773 146.474 77.1929 146.529 77.2247C146.609 77.2928 146.672 77.3799 146.711 77.4782C146.751 77.5764 146.765 77.6829 146.753 77.788C146.729 78.1833 146.613 78.5676 146.415 78.9108C146.218 79.2539 145.943 79.5466 145.613 79.7656ZM152.218 62.421C152.133 62.4846 152.034 62.5262 151.929 62.5418C151.824 62.5574 151.717 62.5467 151.617 62.5106L151.566 62.4658C151.452 62.3226 151.398 62.142 151.412 61.9602C151.436 61.5648 151.551 61.1805 151.749 60.8373C151.947 60.4942 152.221 60.2016 152.551 59.9825C152.676 59.9022 152.819 59.8559 152.967 59.8481C153.03 59.8485 153.091 59.8638 153.146 59.8929C153.227 59.9609 153.29 60.048 153.329 60.1463C153.368 60.2446 153.382 60.351 153.37 60.4561C153.343 60.8503 153.225 61.2328 153.025 61.5737C152.825 61.9146 152.549 62.2046 152.218 62.421ZM160.942 66.4339C160.857 66.4976 160.757 66.5391 160.652 66.5548C160.547 66.5704 160.44 66.5597 160.34 66.5235C160.26 66.4548 160.199 66.3674 160.161 66.2692C160.123 66.1709 160.11 66.0648 160.123 65.9603C160.147 65.565 160.262 65.1807 160.46 64.8375C160.657 64.4943 160.932 64.2017 161.262 63.9826C161.389 63.9021 161.534 63.8558 161.684 63.8482C161.747 63.8463 161.809 63.8618 161.864 63.893C161.886 63.9089 161.905 63.9283 161.921 63.9506C161.98 64.0202 162.024 64.1007 162.052 64.1875C162.079 64.2743 162.089 64.3656 162.081 64.4563C162.057 64.8516 161.942 65.2359 161.744 65.5791C161.546 65.9222 161.272 66.2149 160.942 66.4339ZM167.707 48.0908C167.623 48.1534 167.524 48.1943 167.421 48.21C167.317 48.2256 167.211 48.2154 167.112 48.1804C167.031 48.1124 166.968 48.0253 166.929 47.927C166.89 47.8287 166.876 47.7223 166.888 47.6172C166.912 47.2219 167.027 46.8376 167.225 46.4944C167.422 46.1512 167.697 45.8586 168.027 45.6395C168.155 45.5619 168.3 45.5159 168.449 45.5051C168.512 45.5055 168.573 45.5209 168.629 45.5499C168.708 45.6187 168.77 45.706 168.808 45.8043C168.846 45.9025 168.859 46.0086 168.846 46.1132C168.822 46.5085 168.707 46.8928 168.509 47.236C168.311 47.5791 168.037 47.8718 167.707 48.0908ZM176.808 55.7711C176.723 55.8348 176.624 55.8763 176.519 55.892C176.414 55.9076 176.306 55.8969 176.206 55.8607C176.127 55.792 176.065 55.7046 176.027 55.6064C175.989 55.5081 175.976 55.402 175.989 55.2975C176.014 54.9033 176.13 54.5202 176.327 54.1782C176.525 53.8363 176.799 53.5446 177.128 53.3262C177.255 53.2457 177.4 53.1994 177.551 53.1918C177.613 53.1899 177.675 53.2054 177.73 53.2366C177.871 53.3134 177.947 53.5182 177.947 53.7998C177.922 54.194 177.807 54.5771 177.609 54.9191C177.411 55.2611 177.137 55.5527 176.808 55.7711ZM185.359 55.2399C185.274 55.3046 185.175 55.3473 185.07 55.3641C184.965 55.3808 184.858 55.3712 184.757 55.3359C184.675 55.2672 184.612 55.1791 184.573 55.0796C184.534 54.9801 184.52 54.8724 184.533 54.7663C184.559 54.3715 184.676 53.9881 184.874 53.6461C185.073 53.304 185.349 53.0127 185.679 52.795C185.803 52.7148 185.947 52.6684 186.095 52.6606C186.158 52.658 186.22 52.6735 186.274 52.7054C186.355 52.7735 186.418 52.8605 186.457 52.9588C186.496 53.0571 186.51 53.1635 186.498 53.2686C186.469 53.6584 186.352 54.0364 186.154 54.3736C185.957 54.7109 185.685 54.9985 185.359 55.2143V55.2399Z" fill="#BA68C8"/>
<path d="M145.741 97.2555C145.639 96.9163 145.312 96.8075 144.941 97.0251L112.806 115.586C112.55 115.742 112.34 115.962 112.198 116.226L109.605 114.709C109.747 114.447 109.954 114.226 110.207 114.069L142.336 95.5082C142.594 95.3758 142.879 95.3066 143.168 95.3066C143.458 95.3066 143.743 95.3758 144 95.5082L144.941 96.0459C145.148 96.1843 145.326 96.3625 145.463 96.5702C145.6 96.7779 145.695 97.0109 145.741 97.2555Z" fill="#EBEBEB"/>
<path d="M145.773 97.5057V122.607C145.757 122.895 145.674 123.175 145.531 123.425C145.387 123.675 145.188 123.888 144.947 124.047L114.578 141.578L112.812 142.602L112.684 142.666C112.287 142.807 111.999 142.583 111.999 142.115V117.02C112.007 116.745 112.084 116.477 112.223 116.239C112.365 115.976 112.575 115.755 112.831 115.599L144.967 97.0384C145.338 96.8208 145.664 96.9296 145.767 97.2688C145.767 97.2688 145.767 97.3072 145.767 97.3328C145.774 97.3901 145.776 97.448 145.773 97.5057Z" fill="#FAFAFA"/>
<path d="M112.658 142.673L112.556 142.711C112.511 142.73 112.463 142.743 112.415 142.749C112.344 142.769 112.271 142.782 112.198 142.788H111.98C111.829 142.787 111.679 142.77 111.532 142.737C111.396 142.706 111.264 142.656 111.141 142.589L110.207 142.045C109.964 141.888 109.763 141.676 109.618 141.425C109.473 141.175 109.39 140.894 109.375 140.605V115.523C109.385 115.241 109.464 114.966 109.605 114.723L112.198 116.24C112.059 116.477 111.982 116.745 111.973 117.02V142.122C111.973 142.589 112.236 142.813 112.658 142.673Z" fill="#E0E0E0"/>
<path d="M114.572 137.935V121.205C114.583 121.012 114.639 120.825 114.736 120.658C114.833 120.492 114.967 120.35 115.129 120.245L116.62 119.381C116.927 119.208 117.171 119.381 117.171 119.701V136.412C117.161 136.604 117.106 136.791 117.01 136.958C116.915 137.125 116.781 137.266 116.62 137.372L115.129 138.23C114.796 138.434 114.572 138.287 114.572 137.935Z" fill="#BA68C8"/>
<path d="M119.775 134.935V115.203C119.785 115.011 119.839 114.824 119.935 114.657C120.031 114.49 120.165 114.348 120.326 114.243L121.836 113.373C122.143 113.2 122.393 113.373 122.393 113.693V133.425C122.384 133.618 122.328 133.806 122.231 133.973C122.134 134.14 121.999 134.281 121.836 134.385L120.345 135.249C120.019 135.435 119.775 135.287 119.775 134.935Z" fill="#BA68C8"/>
<path d="M124.973 131.935V122.463C124.984 122.27 125.04 122.083 125.136 121.916C125.233 121.749 125.368 121.608 125.529 121.503L127.021 120.645C127.321 120.466 127.571 120.613 127.571 120.965V130.431C127.563 130.623 127.509 130.811 127.413 130.978C127.317 131.145 127.182 131.287 127.021 131.391L125.529 132.255C125.222 132.434 124.973 132.287 124.973 131.935Z" fill="#BA68C8"/>
<path d="M130.157 128.938V116.656C130.167 116.463 130.223 116.276 130.32 116.109C130.417 115.942 130.551 115.8 130.713 115.696L132.205 114.832C132.512 114.659 132.762 114.8 132.762 115.152V127.453C132.752 127.646 132.697 127.833 132.6 128C132.503 128.167 132.367 128.309 132.205 128.413L130.713 129.277C130.419 129.437 130.157 129.29 130.157 128.938Z" fill="#BA68C8"/>
<path d="M135.373 125.937V121.757C135.383 121.565 135.438 121.378 135.534 121.212C135.63 121.045 135.763 120.903 135.923 120.797L137.421 119.933C137.722 119.76 137.971 119.901 137.971 120.253V124.432C137.961 124.624 137.906 124.811 137.81 124.978C137.715 125.145 137.581 125.287 137.421 125.392L135.917 126.257C135.623 126.429 135.373 126.289 135.373 125.937Z" fill="#BA68C8"/>
<path d="M140.57 122.936V109.201C140.581 109.009 140.637 108.822 140.734 108.655C140.83 108.488 140.965 108.346 141.127 108.241L142.618 107.384C142.925 107.204 143.175 107.384 143.175 107.704V121.432C143.165 121.625 143.11 121.813 143.013 121.98C142.916 122.147 142.781 122.288 142.618 122.392L141.127 123.256C140.819 123.429 140.57 123.288 140.57 122.936Z" fill="#BA68C8"/>
<path d="M192.534 70.234C192.431 69.8948 192.105 69.786 191.734 70.0036L151.802 93.0445C151.547 93.2002 151.337 93.4211 151.194 93.6845L148.602 92.1677C148.744 91.9056 148.951 91.6849 149.204 91.5277L189.129 68.4868C189.386 68.3543 189.671 68.2852 189.961 68.2852C190.25 68.2852 190.535 68.3543 190.793 68.4868L191.734 69.0244C191.941 69.1628 192.118 69.3411 192.255 69.5487C192.393 69.7564 192.487 69.9894 192.534 70.234Z" fill="#EBEBEB"/>
<path d="M192.565 70.4904V95.5921C192.55 95.8799 192.467 96.1599 192.323 96.41C192.18 96.66 191.98 96.8731 191.74 97.0322L153.575 119.068L151.809 120.092L151.681 120.156C151.284 120.297 150.996 120.073 150.996 119.606V94.5041C151.004 94.2292 151.081 93.9608 151.22 93.7232C151.362 93.4598 151.572 93.2389 151.828 93.0832L191.759 70.0423C192.13 69.8247 192.457 69.9335 192.559 70.2727C192.559 70.2727 192.559 70.3111 192.559 70.3367C192.565 70.3877 192.568 70.4391 192.565 70.4904Z" fill="#FAFAFA"/>
<path d="M151.655 120.155L151.553 120.193C151.507 120.212 151.46 120.225 151.412 120.232C151.341 120.251 151.268 120.264 151.194 120.27H150.976C150.826 120.269 150.676 120.252 150.528 120.219C150.392 120.188 150.261 120.139 150.138 120.072L149.204 119.528C148.961 119.37 148.759 119.158 148.615 118.908C148.47 118.657 148.387 118.376 148.372 118.088V93.0051C148.381 92.7235 148.46 92.4487 148.602 92.2051L151.194 93.7219C151.056 93.9595 150.979 94.2279 150.97 94.5028V119.605C150.97 120.072 151.277 120.296 151.655 120.155Z" fill="#E0E0E0"/>
<path d="M165.748 90.9062L163.681 98.5865C163.488 99.2011 163.189 99.7772 162.798 100.289L156.122 108.309C155.691 108.002 155.325 107.612 155.048 107.161C154.771 106.71 154.588 106.208 154.509 105.684C154.042 103.124 155.361 99.5786 157.94 96.4745C158.382 95.9497 158.83 95.4568 159.29 94.9896C161.092 93.1397 163.305 91.7407 165.748 90.9062Z" fill="#BA68C8"/>
<path d="M171.31 100.612C168.347 105.598 162.715 109.362 158.51 109.099C157.933 109.078 157.365 108.953 156.833 108.728L163.412 100.824C163.765 100.443 164.251 100.213 164.769 100.184H164.84L171.31 100.612Z" fill="#BA68C8"/>
<path d="M170.741 90.7792L164.609 98.1458L166.638 90.6512C167.98 90.2274 169.427 90.2726 170.741 90.7792Z" fill="#BA68C8"/>
<path d="M171.758 99.8542L164.904 99.4318C164.827 99.4264 164.751 99.4092 164.68 99.3806C164.689 99.3343 164.709 99.2907 164.737 99.2526C164.753 99.2247 164.773 99.1989 164.795 99.1758L171.47 91.1562C173.64 92.6539 173.755 96.0076 171.758 99.8542Z" fill="#BA68C8"/>
<path d="M175.822 85.5302C175.822 85.991 176.2 86.1702 176.654 85.8822L189.135 78.6755C189.363 78.5409 189.557 78.3552 189.701 78.1332C189.845 77.9111 189.936 77.6586 189.967 77.3955C189.967 76.9346 189.596 76.7554 189.135 77.037L176.654 84.2437C176.427 84.3812 176.234 84.5684 176.09 84.7913C175.946 85.0141 175.855 85.2668 175.822 85.5302Z" fill="#BA68C8"/>
<path d="M175.822 90.5485C175.822 91.0093 176.2 91.1885 176.654 90.9005L189.135 83.7003C189.367 83.5607 189.563 83.3687 189.707 83.1398C189.852 82.9108 189.941 82.6513 189.967 82.3818C189.967 81.921 189.596 81.7418 189.135 82.0298L176.654 89.2301C176.423 89.3708 176.228 89.563 176.084 89.7917C175.939 90.0205 175.85 90.2795 175.822 90.5485Z" fill="#E0E0E0"/>
<path d="M175.822 93.6481C175.822 94.1089 176.2 94.2881 176.654 94.0001L189.135 86.7934C189.367 86.6557 189.563 86.465 189.708 86.237C189.852 86.009 189.941 85.7501 189.967 85.4814C189.967 85.0206 189.596 84.8414 189.135 85.123L176.654 92.3297C176.423 92.4704 176.228 92.6626 176.084 92.8913C175.939 93.1201 175.85 93.3791 175.822 93.6481Z" fill="#E0E0E0"/>
<path d="M175.822 96.7321C175.822 97.1929 176.2 97.3721 176.654 97.0905L189.135 89.8838C189.368 89.7454 189.565 89.5538 189.709 89.3246C189.854 89.0954 189.942 88.8353 189.967 88.5654C189.967 88.1046 189.596 87.9254 189.135 88.2134L176.654 95.4521C176.427 95.5878 176.234 95.7737 176.09 95.9956C175.946 96.2175 175.854 96.4694 175.822 96.7321Z" fill="#E0E0E0"/>
<path d="M175.822 99.8376C175.822 100.298 176.2 100.478 176.654 100.196L189.135 92.9893C189.367 92.8497 189.563 92.6578 189.707 92.4288C189.852 92.1999 189.941 91.9403 189.967 91.6709C189.967 91.21 189.596 91.0308 189.135 91.3188L176.654 98.5255C176.423 98.6645 176.228 98.8554 176.083 99.0832C175.939 99.311 175.849 99.5693 175.822 99.8376Z" fill="#E0E0E0"/>
<path d="M101.541 94.2597C101.439 93.9141 101.119 93.8053 100.741 94.0293L78.9803 106.574C78.7339 106.735 78.5316 106.955 78.3915 107.214L75.8186 105.691C75.9569 105.43 76.1596 105.21 76.4074 105.051L98.1683 92.4997C98.4265 92.3702 98.7114 92.3027 99.0003 92.3027C99.2892 92.3027 99.5741 92.3702 99.8323 92.4997L100.767 93.0437C100.971 93.1834 101.146 93.3632 101.279 93.5723C101.412 93.7813 101.501 94.0152 101.541 94.2597Z" fill="#EBEBEB"/>
<path d="M101.573 94.5108V101.596C101.558 101.884 101.474 102.165 101.33 102.415C101.185 102.666 100.983 102.878 100.741 103.036L78.9803 115.58L78.8267 115.657H78.7883C78.4171 115.766 78.1483 115.542 78.1483 115.088V108.015C78.1564 107.726 78.2402 107.443 78.3915 107.196C78.5316 106.937 78.734 106.717 78.9803 106.556L100.741 94.0116C101.119 93.7876 101.439 93.8964 101.541 94.242C101.545 94.2632 101.545 94.2848 101.541 94.306C101.559 94.3729 101.57 94.4416 101.573 94.5108Z" fill="#FAFAFA"/>
<path d="M78.8138 115.671C78.7124 115.709 78.6073 115.737 78.5002 115.754C78.1743 115.814 77.8384 115.785 77.5274 115.671L77.3418 115.581L76.4074 115.044C76.1648 114.886 75.963 114.674 75.8183 114.424C75.6737 114.173 75.5904 113.892 75.5753 113.604V106.518C75.5865 106.229 75.6702 105.948 75.8185 105.699L78.417 107.197C78.2658 107.444 78.1819 107.726 78.1738 108.016V115.101C78.1738 115.556 78.4426 115.78 78.8138 115.671Z" fill="#E0E0E0"/>
<path d="M101.541 107.765C101.439 107.42 101.119 107.311 100.741 107.535L78.9803 120.079C78.7339 120.241 78.5316 120.461 78.3915 120.719L75.793 119.222C75.9312 118.962 76.134 118.741 76.3818 118.582L98.1426 106.031C98.4009 105.901 98.6858 105.834 98.9747 105.834C99.2636 105.834 99.5485 105.901 99.8067 106.031L100.741 106.575C100.948 106.709 101.125 106.884 101.263 107.089C101.4 107.293 101.495 107.523 101.541 107.765Z" fill="#EBEBEB"/>
<path d="M101.573 108.015V115.1C101.56 115.396 101.475 115.685 101.325 115.941C101.176 116.198 100.967 116.414 100.716 116.572L78.9547 129.116L78.8011 129.193H78.7627C78.3915 129.302 78.1227 129.078 78.1227 128.623V121.519C78.1308 121.23 78.2146 120.947 78.3659 120.7C78.506 120.441 78.7083 120.221 78.9547 120.06L100.716 107.515C101.093 107.291 101.413 107.4 101.516 107.746C101.519 107.767 101.519 107.789 101.516 107.81C101.542 107.876 101.562 107.944 101.573 108.015Z" fill="#FAFAFA"/>
<path d="M78.8138 129.175C78.7124 129.213 78.6073 129.241 78.5002 129.258C78.1743 129.318 77.8384 129.289 77.5274 129.175L77.3418 129.085L76.4074 128.547C76.1648 128.39 75.963 128.178 75.8183 127.927C75.6737 127.677 75.5904 127.396 75.5753 127.107V120.022C75.5865 119.733 75.6702 119.452 75.8185 119.203L78.417 120.701C78.2658 120.948 78.1819 121.23 78.1738 121.52V128.605C78.1738 129.059 78.4426 129.284 78.8138 129.175Z" fill="#E0E0E0"/>
<path d="M101.541 121.275C101.439 120.93 101.119 120.821 100.741 121.045L78.9803 133.589C78.7339 133.75 78.5316 133.97 78.3915 134.229L75.793 132.732C75.9312 132.471 76.134 132.251 76.3818 132.092L98.1426 119.541C98.4009 119.411 98.6858 119.344 98.9747 119.344C99.2636 119.344 99.5485 119.411 99.8067 119.541L100.741 120.085C100.948 120.219 101.125 120.394 101.263 120.598C101.4 120.803 101.495 121.033 101.541 121.275Z" fill="#EBEBEB"/>
<path d="M101.573 121.526V128.611C101.558 128.9 101.474 129.181 101.33 129.431C101.185 129.681 100.983 129.894 100.741 130.051L78.9803 142.596L78.8267 142.673H78.7883C78.4171 142.781 78.1483 142.557 78.1483 142.103V135.031C78.1564 134.741 78.2402 134.459 78.3915 134.211C78.5316 133.953 78.734 133.733 78.9803 133.571L100.716 121.053C101.093 120.829 101.413 120.937 101.516 121.283C101.519 121.304 101.519 121.326 101.516 121.347C101.541 121.405 101.56 121.465 101.573 121.526Z" fill="#FAFAFA"/>
<path d="M78.8138 142.684C78.7124 142.723 78.6073 142.751 78.5002 142.768C78.1743 142.827 77.8384 142.799 77.5274 142.684L77.3418 142.595L76.4074 142.057C76.1648 141.9 75.963 141.687 75.8183 141.437C75.6737 141.187 75.5904 140.906 75.5753 140.617V133.532C75.5865 133.243 75.6702 132.961 75.8185 132.713L78.417 134.211C78.2658 134.458 78.1819 134.74 78.1738 135.03V142.115C78.1738 142.569 78.4426 142.812 78.8138 142.684Z" fill="#E0E0E0"/>
<path d="M101.541 134.787C101.439 134.441 101.119 134.332 100.741 134.556L78.9803 147.101C78.7339 147.262 78.5316 147.482 78.3915 147.741L75.793 146.243C75.9312 145.983 76.134 145.763 76.3818 145.603L98.1426 133.052C98.4009 132.923 98.6858 132.855 98.9747 132.855C99.2636 132.855 99.5485 132.923 99.8067 133.052L100.741 133.596C100.948 133.731 101.125 133.905 101.263 134.11C101.4 134.315 101.495 134.545 101.541 134.787Z" fill="#EBEBEB"/>
<path d="M101.573 135.035V142.121C101.558 142.409 101.474 142.69 101.33 142.94C101.185 143.19 100.983 143.403 100.741 143.561L78.9803 156.105L78.8267 156.182H78.7883C78.4171 156.291 78.1483 156.067 78.1483 155.612V148.572C78.1564 148.282 78.2402 148 78.3915 147.753C78.5316 147.494 78.734 147.274 78.9803 147.113L100.741 134.568C101.119 134.344 101.439 134.453 101.541 134.799C101.545 134.82 101.545 134.841 101.541 134.863C101.557 134.919 101.568 134.977 101.573 135.035Z" fill="#FAFAFA"/>
<path d="M78.8138 156.196C78.7124 156.234 78.6073 156.262 78.5002 156.279C78.1743 156.339 77.8384 156.31 77.5274 156.196L77.3418 156.107L76.4074 155.569C76.1648 155.412 75.963 155.199 75.8183 154.949C75.6737 154.699 75.5904 154.418 75.5753 154.129V147.044C75.5865 146.755 75.6702 146.473 75.8185 146.225L78.417 147.722C78.2658 147.969 78.1819 148.252 78.1738 148.542V155.614C78.1738 156.081 78.4426 156.305 78.8138 156.196Z" fill="#E0E0E0"/>
<path d="M103.826 83.0413C103.853 83.0336 103.882 83.0336 103.909 83.0413L101.573 81.6972V80.974C101.579 80.9123 101.579 80.8501 101.573 80.7884C101.577 80.7672 101.577 80.7456 101.573 80.7244C101.527 80.4823 101.432 80.2521 101.295 80.0475C101.157 79.843 100.98 79.6683 100.773 79.5339L99.8387 78.9899C99.5805 78.8604 99.2956 78.793 99.0067 78.793C98.7178 78.793 98.4329 78.8604 98.1747 78.9899L76.4138 91.5408C76.1716 91.6985 75.9701 91.911 75.8255 92.1613C75.6809 92.4115 75.5974 92.6923 75.5818 92.9808V100.066C75.5969 100.355 75.6802 100.636 75.8248 100.886C75.9694 101.136 76.1713 101.349 76.4138 101.506L77.3483 102.044L77.5339 102.133C77.8449 102.247 78.1808 102.276 78.5067 102.216C78.6138 102.199 78.7188 102.171 78.8203 102.133H78.8587L79.0123 102.056L100.773 89.5119C101.015 89.3543 101.217 89.1417 101.361 88.8915C101.506 88.6412 101.59 88.3604 101.605 88.0719V86.043L103.98 83.3037C104.002 83.2784 104.016 83.2468 104.019 83.2132C104.022 83.1797 104.015 83.1459 103.998 83.1168C103.981 83.0877 103.955 83.0648 103.924 83.0512C103.893 83.0376 103.859 83.0342 103.826 83.0413Z" fill="#BA68C8"/>
<path opacity="0.1" d="M78.8138 102.157C78.7124 102.195 78.6073 102.223 78.5002 102.24C78.1743 102.3 77.8384 102.271 77.5274 102.157L77.3418 102.068L76.3945 101.53C76.152 101.373 75.9501 101.16 75.8055 100.91C75.6609 100.66 75.5776 100.379 75.5625 100.09V93.0048C75.5737 92.7156 75.6573 92.434 75.8057 92.1855L78.4042 93.6832C78.2529 93.9303 78.1691 94.2128 78.161 94.5024V101.588C78.1738 102.042 78.4426 102.266 78.8138 102.157Z" fill="black"/>
<path opacity="0.4" d="M101.541 80.7322C101.439 80.3866 101.119 80.2778 100.741 80.5018L78.9803 93.0463C78.7339 93.2074 78.5316 93.4274 78.3915 93.6863L75.793 92.1886C75.9312 91.9284 76.134 91.708 76.3818 91.5486L98.1426 78.9977C98.4009 78.8682 98.6858 78.8008 98.9747 78.8008C99.2636 78.8008 99.5485 78.8682 99.8067 78.9977L100.741 79.5417C100.948 79.6761 101.125 79.8508 101.263 80.0553C101.4 80.2599 101.495 80.4901 101.541 80.7322Z" fill="white"/>
<path opacity="0.4" d="M103.826 83.0411H101.573V81.7227L103.909 83.0667C103.885 83.0503 103.856 83.0414 103.826 83.0411Z" fill="white"/>
<path d="M33.7618 197.426L38.2419 194.865C38.2419 194.865 40.3988 182.999 38.786 172.804C36.5203 158.467 26.7599 153.52 23.2142 154.941C19.6684 156.362 18.8364 160.618 25.2366 168.9C29.032 173.789 33.8834 184.119 33.7618 197.426Z" fill="#BA68C8"/>
<g opacity="0.1">
<path d="M33.762 197.426L38.2422 194.865C38.2422 194.865 40.3991 182.999 38.7862 172.804C36.5205 158.467 26.7601 153.52 23.2144 154.941C19.6687 156.362 18.8366 160.618 25.2369 168.9C29.0322 173.789 33.8836 184.119 33.762 197.426Z" fill="black"/>
</g>
<path d="M35.3877 191.736H35.3429C35.2601 191.723 35.1855 191.679 35.1353 191.612C35.085 191.545 35.063 191.461 35.0741 191.378C36.9301 177.937 31.5283 163.249 25.4737 157.322C25.4437 157.292 25.4199 157.257 25.4036 157.218C25.3874 157.179 25.379 157.137 25.379 157.095C25.379 157.053 25.3874 157.011 25.4036 156.972C25.4199 156.933 25.4437 156.897 25.4737 156.868C25.5029 156.838 25.5377 156.814 25.5762 156.798C25.6147 156.782 25.656 156.773 25.6977 156.773C25.7394 156.773 25.7807 156.782 25.8192 156.798C25.8577 156.814 25.8925 156.838 25.9217 156.868C32.0979 162.903 37.6022 177.848 35.7205 191.474C35.7053 191.55 35.6635 191.618 35.6025 191.666C35.5415 191.714 35.4653 191.739 35.3877 191.736Z" fill="white"/>
<path d="M21.307 204.625C20.603 205.028 19.1373 204.139 18.5805 203.761C17.6227 203.115 16.8469 202.233 16.3276 201.201C15.7415 200.012 15.5445 198.668 15.7644 197.361C15.8765 196.676 16.0369 196.001 16.2444 195.338C16.4364 194.698 16.622 194.026 16.8076 193.374C17.0387 192.739 17.1368 192.064 17.0956 191.39C16.9292 190.046 15.7324 189.105 14.6507 188.292C13.4475 187.389 12.1994 186.205 12.2058 184.586C12.2979 183.33 12.7992 182.138 13.6331 181.194C14.4075 180.215 15.3228 179.351 16.0268 178.314C16.5859 177.598 16.8839 176.713 16.8716 175.805C16.7979 175.25 16.6105 174.716 16.3212 174.237C15.6655 173.232 15.0898 172.177 14.5995 171.082C14.2091 169.949 14.2667 168.521 15.1499 167.734C15.5445 167.439 15.9938 167.225 16.4718 167.105C16.9498 166.986 17.4469 166.962 17.9341 167.037C18.8427 167.157 19.7154 167.469 20.4942 167.952C23.0543 169.379 24.5327 172.432 27.2592 173.52C28.3399 173.859 29.4408 174.131 30.5553 174.333C31.1148 174.435 31.6466 174.654 32.1163 174.975C32.5859 175.296 32.983 175.711 33.2818 176.195C34.2803 178.192 32.4242 180.676 33.1282 182.781C33.7683 184.656 35.5731 185.38 36.5972 187.069C37.0196 187.815 37.188 188.677 37.0772 189.527C36.9906 190.966 36.6391 192.376 36.0403 193.687C35.3748 194.988 34.6132 196.237 33.7619 197.425C33.7171 197.47 21.4158 204.561 21.307 204.625Z" fill="#BA68C8"/>
<path d="M28.5967 200.742C28.5547 200.741 28.5134 200.731 28.4752 200.713C28.437 200.695 28.4027 200.67 28.3741 200.64C28.3456 200.609 28.3234 200.572 28.3089 200.533C28.2944 200.493 28.2878 200.451 28.2895 200.409C28.8143 187.705 22.8301 173.676 18.478 169.599C18.4193 169.539 18.3865 169.458 18.3865 169.375C18.3865 169.291 18.4193 169.21 18.478 169.151C18.5389 169.092 18.6203 169.059 18.7052 169.059C18.79 169.059 18.8715 169.092 18.9324 169.151C23.3741 173.311 29.48 187.571 28.9488 200.454C28.9448 200.496 28.9325 200.537 28.9126 200.575C28.8927 200.612 28.8656 200.645 28.8328 200.672C28.8001 200.698 28.7624 200.718 28.7218 200.731C28.6813 200.743 28.6388 200.747 28.5967 200.742Z" fill="white"/>
<path d="M26.6895 185.731C26.66 185.738 26.6294 185.738 26.5999 185.731C23.5882 184.905 20.496 184.407 17.3772 184.246C17.3351 184.244 17.2938 184.235 17.2556 184.217C17.2175 184.199 17.1831 184.174 17.1546 184.143C17.126 184.112 17.1039 184.076 17.0894 184.037C17.0748 183.997 17.0683 183.955 17.07 183.913C17.0708 183.871 17.0801 183.829 17.0974 183.791C17.1148 183.752 17.1397 183.717 17.1708 183.689C17.2019 183.66 17.2385 183.638 17.2784 183.624C17.3182 183.609 17.3605 183.603 17.4028 183.606C20.5759 183.772 23.7218 184.281 26.7855 185.123C26.8704 185.136 26.9468 185.182 26.9978 185.251C27.0488 185.32 27.0703 185.406 27.0576 185.491C27.0448 185.576 26.9989 185.652 26.9299 185.703C26.8609 185.754 26.7744 185.776 26.6895 185.763V185.731Z" fill="white"/>
<path d="M74.6726 171.745C74.6366 171.364 74.4988 171.001 74.2735 170.692C74.0482 170.383 73.7439 170.141 73.3926 169.991C72.4509 169.512 71.4092 169.262 70.3525 169.262C69.2958 169.262 68.254 169.512 67.3123 169.991C66.9618 170.142 66.6582 170.385 66.4331 170.693C66.208 171.002 66.0696 171.365 66.0323 171.745L64.3298 216.463C64.2658 217.391 64.8483 218.332 66.0771 219.023C67.3939 219.692 68.8499 220.041 70.3269 220.041C71.8038 220.041 73.2599 219.692 74.5766 219.023C75.8055 218.313 76.3815 217.372 76.3239 216.463L74.6726 171.745Z" fill="#BA68C8"/>
<path opacity="0.15" d="M67.3378 169.991C65.661 170.957 65.661 172.551 67.3378 173.498C68.2795 173.978 69.3213 174.228 70.378 174.228C71.4347 174.228 72.4764 173.978 73.4181 173.498C75.0949 172.532 75.0949 170.938 73.4181 169.991C72.4764 169.512 71.4347 169.262 70.378 169.262C69.3213 169.262 68.2795 169.512 67.3378 169.991Z" fill="black"/>
<path d="M72.2148 157.485C71.6461 157.194 71.0165 157.043 70.3779 157.043C69.7393 157.043 69.1098 157.194 68.541 157.485C68.3312 157.577 68.1499 157.723 68.0159 157.909C67.882 158.095 67.8003 158.313 67.7794 158.541V171.745C67.7992 171.974 67.8804 172.193 68.0144 172.38C68.1484 172.567 68.3303 172.715 68.541 172.807C69.1108 173.094 69.7399 173.244 70.3779 173.244C71.0159 173.244 71.645 173.094 72.2148 172.807C72.4255 172.715 72.6074 172.567 72.7415 172.38C72.8755 172.193 72.9567 171.974 72.9764 171.745V158.541C72.9556 158.313 72.8739 158.095 72.7399 157.909C72.6059 157.723 72.4246 157.577 72.2148 157.485Z" fill="#263238"/>
<path d="M99.3071 125.145C99.3071 124.882 99.3071 124.626 99.2687 124.37C99.2303 124.114 99.2367 123.864 99.2111 123.615C99.1855 123.365 99.1791 123.282 99.1599 123.116C99.1151 122.68 99.0511 122.252 98.9807 121.836C98.9807 121.65 98.9167 121.458 98.8783 121.272C98.8399 121.087 98.8079 120.92 98.7695 120.748C98.6607 120.274 98.5455 119.813 98.4111 119.371C98.3407 119.16 98.2767 118.949 98.2063 118.731C98.1927 118.7 98.182 118.668 98.1743 118.635C98.0975 118.431 98.0271 118.232 97.9502 118.04C97.8734 117.848 97.771 117.592 97.6686 117.4C97.5662 117.208 97.5278 117.087 97.4446 116.933C97.3982 116.818 97.3426 116.706 97.2782 116.6C97.2167 116.463 97.1462 116.331 97.067 116.203C97.067 116.203 97.035 116.139 97.0158 116.114C96.9966 116.088 96.8814 115.883 96.811 115.768C96.7406 115.653 96.715 115.621 96.6702 115.551C96.3422 115.034 95.9741 114.544 95.5694 114.085L95.3646 113.854L95.1917 113.675L94.9677 113.451C94.7667 113.24 94.553 113.041 94.3277 112.856C94.2189 112.76 94.1037 112.67 93.9885 112.587L93.6365 112.331C93.4536 112.197 93.2634 112.073 93.0669 111.96L92.9133 111.864H92.8813L83.8121 106.629H83.7609C82.021 105.658 80.0567 105.162 78.0647 105.189C75.095 105.189 71.7412 106.161 68.1891 108.209C55.9902 115.25 46.0955 132.39 46.0955 146.483C46.0955 153.523 48.5532 158.451 52.4957 160.768H52.5341L61.6097 165.997H61.6481L61.7569 166.055C61.9271 166.155 62.1022 166.247 62.2817 166.33C62.4993 166.439 62.7233 166.535 62.9217 166.625C63.1201 166.714 63.3249 166.784 63.5617 166.848L63.8881 166.945C64.0025 166.988 64.1202 167.023 64.2402 167.047C64.358 167.083 64.4777 167.113 64.5986 167.137C64.6846 167.162 64.7723 167.181 64.861 167.194C65.0146 167.226 65.181 167.258 65.341 167.277C65.377 167.283 65.4138 167.283 65.4498 167.277L66.0258 167.354C69.322 167.7 73.1429 166.772 77.2391 164.41C89.4443 157.37 99.3391 140.223 99.3391 126.137C99.3263 125.81 99.3199 125.477 99.3071 125.145ZM84.5097 115.179C84.9843 116.931 85.2169 118.74 85.201 120.556C85.201 132.985 76.1062 148.717 65.3602 154.95C63.7893 155.884 62.0932 156.589 60.3232 157.043C59.8466 155.289 59.6119 153.478 59.6256 151.661C59.6256 139.231 68.7203 123.5 79.4663 117.266C81.039 116.333 82.7374 115.63 84.5097 115.179Z" fill="#BA68C8"/>
<path opacity="0.1" d="M61.296 165.791L52.4829 160.735C48.5083 158.412 46.0826 153.471 46.0826 146.456C46.0826 140.171 48.0539 133.284 51.3116 126.961L60.3872 132.196C57.1231 138.52 55.1582 145.406 55.1582 151.691C55.1262 158.533 57.4687 163.41 61.296 165.791Z" fill="black"/>
<path opacity="0.4" d="M99.3072 125.142C99.3072 124.88 99.3072 124.624 99.2688 124.368C99.2304 124.112 99.2367 123.862 99.2111 123.613C99.1855 123.363 99.1792 123.28 99.16 123.113C99.1152 122.678 99.0511 122.249 98.9807 121.833C98.9807 121.648 98.9167 121.456 98.8783 121.27C98.8399 121.084 98.8079 120.918 98.7695 120.745C98.6607 120.272 98.5455 119.811 98.4111 119.369C98.3407 119.158 98.2767 118.947 98.2063 118.729C98.1928 118.698 98.1821 118.666 98.1743 118.633C98.0975 118.428 98.0271 118.23 97.9503 118.038C97.8735 117.846 97.7711 117.59 97.6687 117.398C97.5663 117.206 97.5279 117.084 97.4447 116.931C97.3983 116.815 97.3426 116.704 97.2783 116.598C97.2168 116.461 97.1462 116.328 97.0671 116.201C97.0671 116.201 97.0351 116.137 97.0159 116.111C96.9967 116.086 96.8815 115.881 96.8111 115.766C96.7407 115.651 96.715 115.619 96.6702 115.548C96.3423 115.032 95.9742 114.541 95.5694 114.083L95.3646 113.852L95.1918 113.673L94.9678 113.449C94.7668 113.238 94.553 113.039 94.3278 112.854C94.219 112.758 94.1038 112.668 93.9886 112.585L93.6365 112.329C93.4536 112.195 93.2635 112.071 93.0669 111.958C89.054 109.519 83.4665 109.807 77.2519 113.385C65.0466 120.425 55.1519 137.565 55.1519 151.658C55.1519 158.795 57.712 163.78 61.7761 166.046C61.9463 166.147 62.1215 166.239 62.3009 166.321C62.5185 166.43 62.7425 166.526 62.941 166.616C63.1394 166.705 63.3442 166.776 63.581 166.84L63.9074 166.936C64.0217 166.98 64.1394 167.014 64.2594 167.038C64.3773 167.074 64.4969 167.104 64.6178 167.128C64.7038 167.153 64.7915 167.172 64.8802 167.185C65.0338 167.217 65.2002 167.249 65.3602 167.269C65.3963 167.275 65.433 167.275 65.469 167.269L66.0451 167.345C69.3412 167.691 73.1622 166.763 77.2583 164.401C89.4636 157.361 99.3584 140.215 99.3584 126.128C99.3264 125.808 99.32 125.475 99.3072 125.142ZM74.9862 160.542C72.2469 162.123 69.61 162.955 67.3571 162.955C63.1266 162.955 61.1809 160.068 60.3169 157.041C59.8403 155.287 59.6055 153.476 59.6192 151.658C59.6192 139.229 68.714 123.497 79.46 117.263C81.0326 116.33 82.7311 115.628 84.5034 115.177C85.3411 114.969 86.2003 114.859 87.0635 114.851C94.059 114.851 94.8078 122.748 94.8078 126.147C94.8398 138.576 85.7514 154.334 74.9862 160.542Z" fill="white"/>
<path opacity="0.1" d="M94.8396 126.173C94.8396 138.603 85.7513 154.335 74.9988 160.568C72.2595 162.149 69.6226 162.981 67.3697 162.981C63.1392 162.981 61.1935 160.095 60.3295 157.067C62.0995 156.613 63.7956 155.908 65.3665 154.975C76.1317 148.76 85.2072 133.009 85.2072 120.58C85.2231 118.764 84.9906 116.956 84.516 115.203C85.3537 114.995 86.2129 114.885 87.0761 114.877C94.0908 114.851 94.8396 122.749 94.8396 126.173Z" fill="black"/>
<path opacity="0.7" d="M90.974 123.978C90.974 136.408 81.8857 152.139 71.1333 158.373C68.394 159.954 65.7571 160.786 63.5042 160.786C63.056 160.787 62.6086 160.751 62.1665 160.677C61.3016 159.609 60.6714 158.37 60.3169 157.042C59.8403 155.288 59.6055 153.477 59.6192 151.659C59.6192 139.23 68.714 123.498 79.46 117.264C81.0326 116.331 82.7311 115.629 84.5034 115.178C85.3411 114.97 86.2003 114.86 87.0635 114.852C87.5137 114.85 87.9633 114.887 88.4075 114.96C90.6476 117.565 90.974 121.745 90.974 123.978Z" fill="white"/>
<path opacity="0.1" d="M69.1235 174.112L67.9778 219.765C67.3403 219.606 66.7268 219.363 66.1538 219.042C64.9249 218.331 64.3425 217.39 64.4065 216.482L66.1089 171.77C66.1463 172.15 66.2847 172.513 66.5098 172.821C66.7349 173.129 67.0385 173.372 67.389 173.523C67.931 173.813 68.517 174.012 69.1235 174.112Z" fill="black"/>
<path d="M238.813 129.307C238.813 128.814 237.859 123.546 237.226 120.641L231.062 122.561L232.157 127.956L237.354 132.123C238.96 131.771 238.851 129.799 238.813 129.307Z" fill="#FFA8A7"/>
<path d="M222.71 102.912H224.022C226.456 102.908 228.79 101.939 230.51 100.217C232.231 98.4956 233.198 96.1615 233.2 93.7273C233.198 91.1194 232.161 88.6189 230.316 86.7755C228.472 84.932 225.971 83.8965 223.363 83.8965C220.755 83.8965 218.254 84.932 216.409 86.7755C214.564 88.6189 213.527 91.1194 213.526 93.7273C213.526 96.1631 214.493 98.4992 216.216 100.222C217.938 101.944 220.274 102.912 222.71 102.912Z" fill="#263238"/>
<path d="M209.007 118.254L206.095 123.592L210.626 127.477L214.78 120.897L209.007 118.254Z" fill="#F28F8F"/>
<path d="M219.939 106.344C217.052 106.376 213.871 107.425 212.777 109.691C211.682 111.957 208.239 119.016 208.239 119.016C208.239 119.016 210.799 122.754 214.844 122.492L219.939 106.344Z" fill="#BA68C8"/>
<g opacity="0.1">
<path d="M219.939 106.342C217.052 106.374 213.871 107.423 212.777 109.689C211.682 111.955 208.239 119.014 208.239 119.014C208.239 119.014 210.799 122.752 214.844 122.49L219.939 106.342Z" fill="black"/>
</g>
<path d="M229.686 201.276V200.636C229.437 201.378 228.278 204.572 226.525 206.172C225.129 207.452 223.228 208.911 222.742 210.326C222.256 211.74 225.392 212.297 226.697 212.066C228.436 211.773 230.03 210.916 231.235 209.628C231.984 208.713 232.464 207.618 232.995 206.895C233.526 206.172 234.768 205.359 235.056 204.521C235.143 203.739 235.056 202.948 234.8 202.204C234.595 201.423 234.378 200.559 234.109 200.636V201.116C233.479 201.613 232.697 201.878 231.894 201.864C231.28 201.896 229.68 201.768 229.686 201.276Z" fill="#263238"/>
<path d="M225.264 207.294C225.699 206.91 226.134 206.532 226.544 206.174C227.722 204.933 228.64 203.468 229.245 201.866C229.547 201.127 229.703 200.336 229.705 199.537V197.021H234.128V201.118V201.226C233.917 202.148 231.888 204.593 230.736 206.187C229.961 207.255 228.496 208.612 226.742 208.849C224.988 209.086 224.182 208.555 225.264 207.294Z" fill="#FFA8A7"/>
<path d="M213.256 197.008V196.368C213.007 197.11 211.848 200.298 210.095 201.898C208.699 203.178 206.799 204.644 206.312 206.058C205.826 207.472 208.962 208.029 210.261 207.799C212.002 207.506 213.599 206.649 214.805 205.36C215.554 204.445 216.028 203.351 216.565 202.627C217.103 201.904 218.332 201.091 218.626 200.253C218.71 199.471 218.623 198.681 218.37 197.936C218.165 197.155 217.941 196.291 217.679 196.368V196.848C217.048 197.344 216.267 197.608 215.464 197.597C214.818 197.635 213.25 197.507 213.256 197.008Z" fill="#263238"/>
<path d="M208.834 203.031L210.114 201.911C211.291 200.67 212.207 199.205 212.809 197.604C213.116 196.866 213.275 196.074 213.276 195.274V192.746H217.698V196.849V196.964C217.487 197.885 215.458 200.33 214.306 201.924C213.532 202.993 212.066 204.35 210.306 204.587C208.604 204.817 207.752 204.267 208.834 203.031Z" fill="#FFA8A7"/>
<path d="M233.2 132.583C236.63 140.071 233.078 166.446 233.078 166.446C233.181 167.662 234.57 170.05 235.088 175.407C235.728 181.73 234.128 197.59 234.128 197.59C233.453 197.983 232.691 198.205 231.91 198.236C231.129 198.268 230.352 198.107 229.648 197.769C229.648 197.769 225.436 173.877 224.643 167.592C223.952 162.113 222.62 149.23 222.62 149.23L218.851 167.566C219.439 169.673 219.789 171.839 219.894 174.024C219.983 177.736 217.73 194.018 217.73 194.018C217.295 194.851 213.999 195.049 213.135 194.018C213.135 194.018 211.215 171.163 210.799 166.715C210.569 164.059 213.596 131.514 213.596 131.514L233.2 132.583Z" fill="#37474F"/>
<path d="M222.659 149.225L221.551 143.1C221.551 143.1 216.841 142.127 214.703 140.117C216.179 141.845 218.107 143.126 220.271 143.817L221.519 149.174L219.337 165.379L222.659 149.225Z" fill="#263238"/>
<path d="M227.184 106.553C228.444 106.858 229.619 107.443 230.623 108.264C231.626 109.085 232.433 110.121 232.982 111.295C233.789 113.083 233.865 115.116 233.193 116.96L230.128 125.818C230.128 125.818 231.561 129.286 233.225 132.557C225.545 136.852 215.945 134.592 213.634 131.463C213.538 130.823 213.673 127.808 213.487 124.422C213.289 120.793 212.789 116.691 213.359 114.444C214.415 110.278 216.406 106.367 220.354 106.367L227.184 106.553Z" fill="#BA68C8"/>
<path d="M227.184 106.553C229.801 106.924 233.885 107.442 235.69 113.817C237.45 120.032 237.859 122.195 237.859 122.195C237.859 122.195 235.709 124.704 231.357 124.678L230 119.891L227.184 106.553Z" fill="#BA68C8"/>
<path d="M217.199 88.877C216.163 89.485 214.876 92.0771 215.004 97.5813C215.113 102.221 216.617 103.342 217.372 103.7C218.128 104.058 219.587 103.828 221.001 103.591V106.375C221.001 106.375 219.043 108.654 219.164 109.927C219.286 111.201 221.993 111.508 223.824 110.26C225.012 109.404 226.031 108.337 226.832 107.111V100.378C226.98 100.561 227.164 100.713 227.372 100.824C227.58 100.936 227.808 101.004 228.043 101.026C228.278 101.048 228.515 101.023 228.74 100.953C228.965 100.882 229.173 100.767 229.354 100.615C230.915 99.5782 230.973 97.0053 230.064 96.0836C229.155 95.162 227.197 95.4436 226.832 96.7237C224.972 96.6462 223.162 96.105 221.564 95.1492C220.395 94.5202 219.391 93.6245 218.632 92.5348C217.874 91.445 217.383 90.1919 217.199 88.877Z" fill="#FFA8A7"/>
<path d="M220.194 96.4093C220.187 96.4877 220.196 96.5667 220.22 96.6416C220.244 96.7165 220.283 96.7859 220.334 96.8456C220.386 96.9052 220.448 96.954 220.519 96.989C220.589 97.024 220.666 97.0445 220.745 97.0493C220.865 97.0606 220.987 97.0356 221.093 96.9775C221.199 96.9193 221.286 96.8307 221.342 96.723C221.397 96.6154 221.419 96.4935 221.405 96.3732C221.391 96.2528 221.341 96.1394 221.262 96.0475C221.183 95.9556 221.079 95.8894 220.962 95.8575C220.845 95.8255 220.721 95.8292 220.606 95.8681C220.492 95.907 220.391 95.9793 220.318 96.0757C220.244 96.1721 220.201 96.2883 220.194 96.4093Z" fill="#263238"/>
<path d="M220.035 100.344L218.678 100.779C218.703 100.869 218.747 100.953 218.805 101.027C218.864 101.1 218.936 101.161 219.018 101.206C219.1 101.251 219.19 101.28 219.284 101.29C219.377 101.3 219.471 101.292 219.561 101.265C219.744 101.204 219.897 101.073 219.985 100.901C220.074 100.729 220.091 100.529 220.035 100.344Z" fill="#F28F8F"/>
<path d="M215.407 94.618L216.559 93.7988C216.51 93.7198 216.444 93.6518 216.367 93.5988C216.29 93.5458 216.204 93.5089 216.112 93.4903C216.021 93.4718 215.926 93.472 215.835 93.4909C215.743 93.5098 215.657 93.547 215.58 93.6004C215.426 93.7154 215.323 93.8852 215.29 94.0747C215.258 94.2641 215.3 94.4586 215.407 94.618Z" fill="#263238"/>
<path d="M215.676 95.9874C215.674 96.1021 215.705 96.2149 215.767 96.312C215.828 96.409 215.916 96.4861 216.02 96.5337C216.125 96.5813 216.241 96.5974 216.354 96.58C216.468 96.5626 216.573 96.5124 216.659 96.4357C216.744 96.3589 216.805 96.2589 216.834 96.148C216.863 96.0371 216.86 95.92 216.823 95.8112C216.787 95.7024 216.719 95.6066 216.629 95.5356C216.539 95.4646 216.43 95.4214 216.316 95.4114C216.236 95.4062 216.156 95.4171 216.08 95.4434C216.004 95.4697 215.934 95.5109 215.875 95.5646C215.815 95.6183 215.767 95.6833 215.733 95.7559C215.699 95.8286 215.679 95.9073 215.676 95.9874Z" fill="#263238"/>
<path d="M218.435 95.6543L218.339 99.168L216.489 98.5984L218.435 95.6543Z" fill="#F28F8F"/>
<path d="M221.039 103.59C222.53 103.392 225.603 102.515 226.083 101.299C225.89 101.913 225.515 102.453 225.007 102.848C224.086 103.635 221.039 104.518 221.039 104.518V103.59Z" fill="#F28F8F"/>
<path opacity="0.1" d="M231.062 123.118C230.473 121.525 229.971 119.901 229.558 118.254C229.558 118.254 229.801 121.87 230.838 123.816L231.062 123.118Z" fill="black"/>
<path d="M196.571 117.926L213.519 122.387L218.524 143.424L202.408 138.739L196.571 117.926Z" fill="#E0E0E0"/>
<g opacity="0.1">
<path d="M203.963 131.844C203.803 132.273 202.875 133.469 200.904 133.373L200.661 132.503L203.963 131.844Z" fill="black"/>
</g>
<g opacity="0.1">
<path d="M207.753 132.5C207.823 133.063 208.975 134.1 210.953 134.746C213.167 135.489 216.572 135.098 216.572 135.098L216.265 134.049L207.753 132.5Z" fill="black"/>
</g>
<g opacity="0.1">
<path d="M201.538 120.972L201.397 120.332C201.32 119.974 202.312 119.954 203.618 120.294L206.114 120.934C207.394 121.273 208.54 121.836 208.616 122.214L208.757 122.854L201.538 120.972Z" fill="black"/>
</g>
<path d="M200.36 118.533C200.309 118.309 200.712 118.252 201.262 118.399L202.248 118.674C202.248 118.674 201.954 117.272 204.168 117.765C204.755 117.851 205.31 118.086 205.779 118.45C206.248 118.813 206.614 119.292 206.843 119.839L207.899 120.14C208.482 120.306 209.007 120.62 209.077 120.844L209.205 121.247L200.469 118.943C200.469 118.943 200.411 118.757 200.36 118.533Z" fill="#37474F"/>
<path d="M201.564 119.23C202.364 119.422 202.696 119.524 202.812 120.075C202.927 120.625 203.004 121.169 203.004 121.169L206.844 122.187C206.844 122.187 206.658 121.393 206.601 121.079C206.543 120.766 206.671 120.587 207.285 120.747L207.337 120.503L201.282 118.961L201.564 119.23Z" fill="#37474F"/>
<path d="M201.429 121.06L201.288 120.42C201.211 120.062 202.21 120.049 203.509 120.388L206.005 121.028C207.285 121.368 208.431 121.931 208.508 122.309L208.648 122.949L201.429 121.06Z" fill="#37474F"/>
<path d="M237.354 132.091L232.157 127.925C232.157 127.925 220.687 129.966 219.356 130.075C218.642 130.095 217.939 129.899 217.339 129.512C216.74 129.124 216.271 128.564 215.996 127.905C215.484 126.581 214.575 126.747 214.575 126.747C214.575 126.747 214.978 128.424 215.1 128.955C215.222 129.486 211.996 129.934 210.204 129.326C208.412 128.718 205.82 129.601 207.426 132.04C209.033 134.478 212.162 134.766 214.332 134.766C215.239 134.76 216.146 134.698 217.046 134.581C217.75 134.491 218.447 134.421 219.151 134.37C223.6 134.056 235.331 132.725 237.354 132.091Z" fill="#FFA8A7"/>
<path d="M198.299 124.077C198.299 124.077 198.907 126.241 199.048 126.759C199.189 127.277 201.167 128.212 202.408 128.551C203.65 128.89 205.02 129.3 204.431 131.041C203.887 132.647 201.839 133.018 200.789 132.961C199.739 132.903 198.318 131.918 197.755 130.305C197.038 128.257 197.422 126.068 197.115 124.864C196.808 123.661 197.672 123.36 198.299 124.077Z" fill="#FFA8A7"/>
<path d="M238.589 110.288C236.953 110.287 235.385 109.636 234.228 108.479C233.071 107.323 232.421 105.754 232.419 104.119V89.6348C234.055 89.6365 235.623 90.287 236.78 91.4437C237.937 92.6004 238.587 94.1688 238.589 95.8046V110.288Z" fill="#263238"/>
<path d="M232.22 90.142L234.781 88.7723C234.7 88.6014 234.585 88.4487 234.443 88.3233C234.302 88.1979 234.136 88.1024 233.957 88.0426C233.778 87.9828 233.588 87.96 233.4 87.9754C233.211 87.9908 233.028 88.0442 232.86 88.1323C232.515 88.32 232.256 88.6339 232.136 89.0084C232.017 89.383 232.047 89.7891 232.22 90.142Z" fill="#263238"/>
<path d="M64.4193 28.8948L60.0223 31.4549C60.0474 31.2617 60.0602 31.0672 60.0607 30.8725V29.5924C60.0607 27.3267 58.4734 26.3923 56.5086 27.5443C55.666 28.0598 54.9454 28.752 54.3965 29.5732C54.0701 26.7315 51.8364 25.6691 49.1227 27.2371C46.1914 28.9268 43.8105 33.0485 43.8105 36.4343V38.3543C43.7924 39.1133 43.9478 39.8663 44.2649 40.556L40.6168 42.6617C40.0447 43.032 39.5673 43.5311 39.2228 44.119C38.8783 44.707 38.6762 45.3674 38.6327 46.0474C38.6327 47.3275 39.5159 47.8075 40.604 47.1803L64.4065 33.439C64.9794 33.0651 65.4559 32.5613 65.7973 31.9685C66.1388 31.3758 66.3354 30.7108 66.3714 30.0276C66.3842 28.7732 65.5137 28.2548 64.4193 28.8948Z" fill="#EBEBEB"/>
</svg>
