<svg width="243" height="52" viewBox="0 0 243 52" fill="none" xmlns="http://www.w3.org/2000/svg">
<g id="Logo" clip-path="url(#clip0_1025_6771)">
<path id="Vector" d="M17.9058 14.6412C21.9533 14.6412 25.2345 11.5119 25.2345 7.65166C25.2345 3.79144 21.9533 0.662109 17.9058 0.662109C13.8583 0.662109 10.5771 3.79144 10.5771 7.65166C10.5771 11.5119 13.8583 14.6412 17.9058 14.6412Z" fill="#00A9B8"/>
<path id="Vector_2" d="M37.1207 14.6412C41.1682 14.6412 44.4493 11.5119 44.4493 7.65166C44.4493 3.79144 41.1682 0.662109 37.1207 0.662109C33.0731 0.662109 29.792 3.79144 29.792 7.65166C29.792 11.5119 33.0731 14.6412 37.1207 14.6412Z" fill="#092C4C"/>
<path id="Vector_3" d="M37.3261 16.3887H36.9618C26.9436 16.3887 18.8223 24.212 18.8223 33.8625C18.8223 43.5131 26.9436 51.3364 36.9618 51.3364H37.3261C47.3443 51.3364 55.4657 43.5131 55.4657 33.8625C55.4657 24.212 47.3443 16.3887 37.3261 16.3887Z" fill="#092C4C"/>
<path id="Vector_4" fill-rule="evenodd" clip-rule="evenodd" d="M27.9488 18.6947C33.429 21.7081 37.1434 27.3721 37.1434 33.8625C37.1434 40.353 33.47 46.017 28.0165 49.0304C22.5364 46.017 18.8219 40.353 18.8219 33.8626C18.8219 27.3721 22.4954 21.7081 27.9488 18.6947ZM27.9488 18.6947C25.2806 17.2275 22.1937 16.3887 18.9132 16.3887C8.79442 16.3887 0.5 24.2906 0.5 34.038V51.3365H19.0039C22.2843 51.3365 25.3614 50.4974 28.0165 49.0304C30.6848 50.4974 33.7716 51.3365 37.0521 51.3365C47.1708 51.3365 55.4656 43.4345 55.4656 33.6871V16.3887H36.9615C33.681 16.3887 30.6039 17.2275 27.9488 18.6947Z" fill="#00A9B8"/>
<path id="Vector_5" d="M67.8117 39.2209C67.2526 39.2209 66.7664 39.0219 66.3533 38.6238C65.9402 38.2258 65.7334 37.7575 65.7334 37.2189V15.5833C65.7334 15.0448 65.9402 14.5765 66.3533 14.1784C66.7664 13.7804 67.2526 13.5813 67.8117 13.5813H68.7234C69.3552 13.5813 69.9384 13.7452 70.4732 14.0731C71.008 14.4009 71.3968 14.8341 71.6402 15.3726L78.0205 28.649C78.0205 28.6724 78.0329 28.6841 78.0571 28.6841C78.0813 28.6841 78.0937 28.6724 78.0937 28.649L84.4744 15.3726C84.7174 14.8341 85.1062 14.4009 85.641 14.0731C86.1758 13.7452 86.759 13.5813 87.3912 13.5813H88.4485C89.0075 13.5813 89.4938 13.7804 89.9069 14.1784C90.32 14.5765 90.5267 15.0448 90.5267 15.5833V37.2189C90.5267 37.7575 90.32 38.2258 89.9069 38.6238C89.4938 39.0219 89.0075 39.2209 88.4485 39.2209H87.6465C87.0875 39.2209 86.6012 39.0219 86.1881 38.6238C85.7746 38.2258 85.5682 37.7575 85.5682 37.2189V21.9405C85.5682 21.9171 85.5559 21.9054 85.5317 21.9054C85.5074 21.9054 85.4951 21.9171 85.4951 21.9405L81.1198 30.9671C80.8527 31.5056 80.4391 31.9505 79.8801 32.3017C79.3453 32.6296 78.7744 32.7934 78.1664 32.7934H77.9478C77.3402 32.7934 76.7565 32.6296 76.1975 32.3017C75.6627 31.9505 75.262 31.5056 74.9944 30.9671L70.6191 21.9405C70.6191 21.9171 70.6068 21.9054 70.5825 21.9054C70.5583 21.9054 70.5464 21.9171 70.5464 21.9405V37.2189C70.5464 37.7575 70.3396 38.2258 69.9265 38.6238C69.513 39.0219 69.0272 39.2209 68.4681 39.2209H67.8117ZM103.649 23.8723C102.409 23.8723 101.449 24.2118 100.768 24.8909C100.112 25.5465 99.6989 26.6119 99.5288 28.087C99.5288 28.2743 99.6257 28.368 99.8202 28.368H106.967C107.161 28.368 107.258 28.2743 107.258 28.087C107.161 25.2772 105.958 23.8723 103.649 23.8723ZM104.56 39.5721C101.376 39.5721 98.9208 38.776 97.1952 37.1838C95.4934 35.5681 94.643 33.2032 94.643 30.089C94.643 26.9982 95.4084 24.645 96.94 23.0293C98.4711 21.4137 100.683 20.6059 103.576 20.6059C108.972 20.6059 111.743 23.5562 111.889 29.4568C111.913 30.0188 111.707 30.4871 111.269 30.8617C110.831 31.2364 110.321 31.4237 109.738 31.4237H99.784C99.5649 31.4237 99.4798 31.5291 99.5288 31.7398C99.6989 33.3086 100.233 34.456 101.133 35.1818C102.057 35.8843 103.393 36.2355 105.144 36.2355C106.238 36.2355 107.453 36.0599 108.79 35.7086C109.227 35.5916 109.628 35.6618 109.993 35.9194C110.382 36.1769 110.576 36.5282 110.576 36.9731C110.576 37.5116 110.406 37.9916 110.066 38.4131C109.75 38.8111 109.325 39.057 108.79 39.1507C107.428 39.4316 106.018 39.5721 104.56 39.5721ZM117.901 39.2209C117.342 39.2209 116.856 39.0219 116.443 38.6238C116.03 38.2258 115.823 37.7575 115.823 37.2189V22.9591C115.823 22.4206 116.03 21.9522 116.443 21.5542C116.856 21.1561 117.342 20.9571 117.901 20.9571H118.375C118.958 20.9571 119.445 21.1561 119.833 21.5542C120.247 21.9288 120.466 22.3972 120.49 22.9591V23.205C120.49 23.2284 120.502 23.2401 120.526 23.2401C120.551 23.2401 120.575 23.2284 120.599 23.205C122.252 21.4723 124.184 20.6059 126.397 20.6059C128.609 20.6059 130.213 21.2147 131.209 22.4323C132.23 23.6264 132.741 25.6284 132.741 28.4382V37.2189C132.741 37.7575 132.534 38.2258 132.121 38.6238C131.707 39.0219 131.222 39.2209 130.663 39.2209H130.043C129.484 39.2209 128.997 39.0219 128.584 38.6238C128.195 38.2258 128.001 37.7575 128.001 37.2189V28.7895C128.001 27.0333 127.758 25.8392 127.271 25.207C126.81 24.5513 125.971 24.2235 124.756 24.2235C123.759 24.2235 122.835 24.6333 121.985 25.4528C121.134 26.2723 120.709 27.1504 120.709 28.087V37.2189C120.709 37.7575 120.502 38.2258 120.089 38.6238C119.676 39.0219 119.189 39.2209 118.63 39.2209H117.901ZM137.705 25.0665C137.219 25.0665 136.805 24.9025 136.465 24.5748C136.125 24.2235 135.955 23.8138 135.955 23.3454C135.955 22.8771 136.125 22.4791 136.465 22.1513C136.805 21.8235 137.219 21.6595 137.705 21.6595H139.455C139.674 21.6595 139.783 21.5542 139.783 21.3434V16.9882C139.783 16.4497 139.978 15.9814 140.366 15.5833C140.779 15.1853 141.266 14.9862 141.825 14.9862H142.554C143.113 14.9862 143.599 15.1853 144.012 15.5833C144.425 15.9814 144.632 16.4497 144.632 16.9882V21.3434C144.632 21.5542 144.742 21.6595 144.96 21.6595H149.117C149.603 21.6595 150.016 21.8235 150.357 22.1513C150.721 22.4791 150.904 22.8771 150.904 23.3454C150.904 23.8138 150.721 24.2235 150.357 24.5748C150.016 24.9025 149.603 25.0665 149.117 25.0665H144.96C144.742 25.0665 144.632 25.1601 144.632 25.3474V32.4422C144.632 33.9642 144.802 34.9477 145.143 35.3925C145.483 35.8374 146.188 36.0599 147.258 36.0599C147.841 36.0599 148.278 36.0364 148.57 35.9896C149.056 35.9428 149.481 36.0482 149.846 36.3057C150.211 36.5633 150.393 36.9145 150.393 37.3594C150.393 37.8746 150.211 38.3429 149.846 38.7643C149.506 39.1624 149.081 39.3848 148.57 39.4316C147.501 39.5253 146.699 39.5721 146.164 39.5721C143.806 39.5721 142.153 39.0921 141.205 38.1321C140.257 37.1487 139.783 35.4042 139.783 32.8988V25.3474C139.783 25.1601 139.674 25.0665 139.455 25.0665H137.705ZM166.752 25.4879C166.047 24.5045 164.978 24.0128 163.543 24.0128C162.109 24.0128 161.028 24.5045 160.299 25.4879C159.594 26.448 159.241 27.9816 159.241 30.089C159.241 32.1964 159.594 33.7418 160.299 34.7252C161.028 35.6852 162.109 36.1653 163.543 36.1653C164.978 36.1653 166.047 35.6852 166.752 34.7252C167.481 33.7418 167.846 32.1964 167.846 30.089C167.846 27.9816 167.481 26.448 166.752 25.4879ZM170.325 37.1136C168.721 38.7526 166.46 39.5721 163.543 39.5721C160.627 39.5721 158.354 38.7526 156.725 37.1136C155.121 35.4511 154.319 33.1096 154.319 30.089C154.319 27.0685 155.121 24.7387 156.725 23.0996C158.354 21.4371 160.627 20.6059 163.543 20.6059C166.46 20.6059 168.721 21.4371 170.325 23.0996C171.954 24.7387 172.768 27.0685 172.768 30.089C172.768 33.1096 171.954 35.4511 170.325 37.1136ZM178.61 39.2209C178.051 39.2209 177.564 39.0219 177.151 38.6238C176.738 38.2258 176.531 37.7575 176.531 37.2189V22.9591C176.531 22.4206 176.738 21.9522 177.151 21.5542C177.564 21.1561 178.051 20.9571 178.61 20.9571H179.339C179.898 20.9571 180.384 21.1561 180.797 21.5542C181.211 21.9522 181.417 22.4206 181.417 22.9591V24.4343C181.417 24.4577 181.43 24.4694 181.454 24.4694C181.502 24.4694 181.527 24.4577 181.527 24.4343C182.231 23.4977 183.155 22.7367 184.298 22.1513C185.44 21.5425 186.692 21.1678 188.053 21.0273C188.564 20.9805 189.001 21.1444 189.366 21.5191C189.73 21.8703 189.913 22.2918 189.913 22.7835C189.913 23.2752 189.73 23.6967 189.366 24.0479C189.001 24.3992 188.564 24.5982 188.053 24.645C183.751 24.9728 181.6 27.0802 181.6 30.9671V37.2189C181.6 37.7575 181.393 38.2258 180.98 38.6238C180.567 39.0219 180.08 39.2209 179.521 39.2209H178.61ZM197.4 39.2209C196.841 39.2209 196.355 39.0219 195.941 38.6238C195.528 38.2258 195.322 37.7575 195.322 37.2189V22.9591C195.322 22.4206 195.528 21.9522 195.941 21.5542C196.355 21.1561 196.841 20.9571 197.4 20.9571H198.348C198.907 20.9571 199.393 21.1561 199.806 21.5542C200.22 21.9522 200.426 22.4206 200.426 22.9591V37.2189C200.426 37.7575 200.22 38.2258 199.806 38.6238C199.393 39.0219 198.907 39.2209 198.348 39.2209H197.4ZM197.4 17.0936C196.841 17.0936 196.355 16.8946 195.941 16.4965C195.528 16.0985 195.322 15.6301 195.322 15.0916V14.8809C195.322 14.3424 195.528 13.874 195.941 13.476C196.355 13.0779 196.841 12.8789 197.4 12.8789H198.348C198.907 12.8789 199.393 13.0779 199.806 13.476C200.22 13.874 200.426 14.3424 200.426 14.8809V15.0916C200.426 15.6301 200.22 16.0985 199.806 16.4965C199.393 16.8946 198.907 17.0936 198.348 17.0936H197.4ZM207.569 25.0665C207.082 25.0665 206.669 24.9025 206.329 24.5748C205.989 24.2235 205.818 23.8138 205.818 23.3454C205.818 22.8771 205.989 22.4791 206.329 22.1513C206.669 21.8235 207.082 21.6595 207.569 21.6595H209.501C209.72 21.6595 209.829 21.5542 209.829 21.3434V20.5005C209.829 17.9717 210.4 16.1336 211.543 14.9862C212.685 13.8155 214.496 13.2301 216.976 13.2301C217.802 13.2301 218.519 13.2769 219.127 13.3706C219.637 13.4409 220.05 13.6867 220.366 14.1082C220.707 14.5062 220.877 14.9628 220.877 15.478C220.877 15.8994 220.694 16.2389 220.33 16.4965C219.965 16.7307 219.564 16.8126 219.127 16.7424C218.64 16.6956 218.288 16.6721 218.069 16.6721C216.83 16.6721 215.979 16.9297 215.517 17.4449C215.079 17.9366 214.861 18.9083 214.861 20.36V21.3434C214.861 21.5542 214.97 21.6595 215.189 21.6595H218.762C219.248 21.6595 219.661 21.8235 220.002 22.1513C220.342 22.4791 220.512 22.8771 220.512 23.3454C220.512 23.8138 220.342 24.2235 220.002 24.5748C219.661 24.9025 219.248 25.0665 218.762 25.0665H215.189C214.97 25.0665 214.861 25.1601 214.861 25.3474V37.2189C214.861 37.7575 214.654 38.2258 214.241 38.6238C213.828 39.0219 213.342 39.2209 212.782 39.2209H211.871C211.312 39.2209 210.826 39.0219 210.412 38.6238C210.023 38.2258 209.829 37.7575 209.829 37.2189V25.3474C209.829 25.1601 209.72 25.0665 209.501 25.0665H207.569ZM229.699 38.9399L223.647 22.8186C223.501 22.3503 223.562 21.9288 223.829 21.5542C224.097 21.1561 224.485 20.9571 224.996 20.9571H226.09C226.697 20.9571 227.256 21.1444 227.767 21.5191C228.277 21.8703 228.605 22.3269 228.751 22.8889L232.142 34.374C232.142 34.3974 232.154 34.4091 232.179 34.4091C232.203 34.4091 232.215 34.3974 232.215 34.374L236.116 22.8537C236.311 22.2918 236.663 21.8352 237.174 21.4839C237.684 21.1327 238.243 20.9571 238.851 20.9571H239.726C240.236 20.9571 240.625 21.1561 240.893 21.5542C241.184 21.9522 241.233 22.3737 241.039 22.8186L232.142 45.0863C231.923 45.6482 231.559 46.0933 231.048 46.4212C230.538 46.7724 229.967 46.9478 229.335 46.9478H228.46C227.974 46.9478 227.585 46.749 227.293 46.3506C227.026 45.9761 226.989 45.5662 227.184 45.1216L229.699 39.5019C229.748 39.4082 229.772 39.3146 229.772 39.2209C229.772 39.1273 229.748 39.0336 229.699 38.9399Z" fill="#092C4C"/>
</g>
<defs>
<clipPath id="clip0_1025_6771">
<rect width="242" height="52" fill="white" transform="translate(0.5)"/>
</clipPath>
</defs>
</svg>
